<svg width="23" height="22" viewBox="0 0 23 22" fill="none" xmlns="http://www.w3.org/2000/svg">
<path d="M10.1921 1.51246C10.5513 0.406886 12.1154 0.406888 12.4746 1.51246L14.2072 6.84458C14.3678 7.33901 14.8286 7.67376 15.3484 7.67376H20.9549C22.1174 7.67376 22.6007 9.1613 21.6603 9.84458L17.1245 13.14C16.7039 13.4456 16.5279 13.9872 16.6886 14.4817L18.4211 19.8138C18.7803 20.9194 17.5149 21.8387 16.5745 21.1554L12.0387 17.86C11.6181 17.5544 11.0486 17.5544 10.628 17.86L6.09226 21.1554C5.1518 21.8387 3.88643 20.9193 4.24565 19.8138L5.97816 14.4817C6.13881 13.9872 5.96282 13.4456 5.54223 13.14L1.00646 9.84458C0.0660024 9.1613 0.549334 7.67376 1.7118 7.67376H7.31833C7.8382 7.67376 8.29895 7.33901 8.45959 6.84458L10.1921 1.51246Z" fill="#FFA800"/>
</svg>
